<?xml version="1.0" encoding="UTF-8"?>
<svg width="32px" height="32px" viewBox="0 0 32 32" version="1.1" xmlns="http://www.w3.org/2000/svg" xmlns:xlink="http://www.w3.org/1999/xlink">
    <title>bus-icon-circle</title>
        <g id="Bus-in-circle" transform="translate(-7.000000, -6.000000)">
            <g id="bus-icon-circle" transform="translate(7.000000, 6.000000)">
                <circle id="circle" fill="#F7B500" cx="16" cy="16" r="16"></circle>
                <path d="M22.7741935,26.6666667 L20.8387097,26.6666667 L20.8387097,24.1176471 L11.1612903,24.1176471 L11.1612903,26.6666667 L9.22580645,26.6666667 L9.22580645,24.1176471 L7.29032258,24.1176471 L7.29032258,13.9215686 L6,13.9215686 L6,9.46078431 L7.29032258,9.46078431 L7.29032258,7.54901961 L9.22580645,7.54901961 L9.22580645,18.3823529 L22.7741935,18.3823529 L22.7741935,7.54901961 L24.7096774,7.54901961 L24.7096774,9.46078431 L26,9.46078431 L26,13.9215686 L24.7096774,13.9215686 L24.7096774,24.1176471 L22.7741935,24.1176471 L22.7741935,26.6666667 Z M10.8387097,19.6568627 C9.94792782,19.6568627 9.22580645,20.3701346 9.22580645,21.25 C9.22580645,22.1298654 9.94792782,22.8431373 10.8387097,22.8431373 C11.7294915,22.8431373 12.4516129,22.1298654 12.4516129,21.25 C12.4516129,20.3701346 11.7294915,19.6568627 10.8387097,19.6568627 Z M21.1612903,19.6568627 C20.2705085,19.6568627 19.5483871,20.3701346 19.5483871,21.25 C19.5483871,22.1298654 20.2705085,22.8431373 21.1612903,22.8431373 C22.0520722,22.8431373 22.7741935,22.1298654 22.7741935,21.25 C22.7741935,20.3701346 22.0520722,19.6568627 21.1612903,19.6568627 Z M24.7096774,5 L24.7096774,6.2745098 L7.29032258,6.2745098 L7.29032258,5 L24.7096774,5 Z" id="bus-icon" fill="#000000"></path>
            </g>
        </g>
</svg>