<?xml version="1.0" encoding="UTF-8"?>
<svg width="38px" height="22px" viewBox="0 0 38 22" version="1.1" xmlns="http://www.w3.org/2000/svg" xmlns:xlink="http://www.w3.org/1999/xlink">
    <title>route-icon</title>
    <g id="route-icon" transform="translate(-3.000000, -11.000000)" fill="currentColor">
        <path d="M36.55,11 C38.4829966,11 40.05,12.5670034 40.05,14.5 C40.05,16.4329966 38.4829966,18 36.55,18 C34.9191236,18 33.5487743,16.8845507 33.1602532,15.374953 L25.77229,15.375 L25.735,15.304 L25.77229,15.375 L18.1854675,29.375 L9.429,29.375 L3,33 L3,24 L9.445,27.625 L17.3,27.625 L24.8601196,13.625 L24.897,13.695 L24.8601196,13.625 L33.1602532,13.625047 C33.5487743,12.1154493 34.9191236,11 36.55,11 Z M4.6,26.3 L4.6,30.675 L8.1,28.4875 L4.6,26.3 Z M36.55,12.75 C35.5835017,12.75 34.8,13.5335017 34.8,14.5 C34.8,15.4664983 35.5835017,16.25 36.55,16.25 C37.5164983,16.25 38.3,15.4664983 38.3,14.5 C38.3,13.5335017 37.5164983,12.75 36.55,12.75 Z" id="route-icon-path"></path>
    </g>
</svg>